<?xml version="1.0" encoding="utf-8"?>
<!-- Generator: Adobe Illustrator 18.0.0, SVG Export Plug-In . SVG Version: 6.00 Build 0)  -->
<!DOCTYPE svg PUBLIC "-//W3C//DTD SVG 1.1//EN" "http://www.w3.org/Graphics/SVG/1.1/DTD/svg11.dtd">
<svg version="1.1" id="Capa_1" xmlns="http://www.w3.org/2000/svg" xmlns:xlink="http://www.w3.org/1999/xlink" x="0px" y="0px"
	 viewBox="0 0 45 45" enable-background="new 0 0 45 45" xml:space="preserve">
<g>
	<g>
		<path id="ggbLogoLetter8_1_" fill="#666666" d="M42,38.9v4h-0.5v-0.7c-0.2,0.3-0.5,0.5-0.7,0.6c-0.3,0.1-0.6,0.2-0.9,0.2
			c-0.6,0-1.1-0.2-1.4-0.6c-0.4-0.4-0.6-0.9-0.6-1.5c0-0.6,0.2-1.1,0.6-1.5c0.4-0.4,0.9-0.6,1.5-0.6c0.3,0,0.6,0.1,0.9,0.2
			c0.3,0.1,0.5,0.3,0.7,0.6v-0.7L42,38.9L42,38.9z M40,39.3c-0.3,0-0.5,0.1-0.8,0.2c-0.2,0.1-0.4,0.3-0.6,0.6
			c-0.1,0.3-0.2,0.5-0.2,0.8c0,0.3,0.1,0.5,0.2,0.8c0.1,0.3,0.3,0.5,0.6,0.6c0.2,0.1,0.5,0.2,0.8,0.2c0.3,0,0.5-0.1,0.8-0.2
			c0.3-0.1,0.4-0.3,0.6-0.6c0.1-0.2,0.2-0.5,0.2-0.8c0-0.5-0.2-0.9-0.5-1.2C40.8,39.4,40.4,39.3,40,39.3L40,39.3z"/>
		<path id="ggbLogoLetter7_1_" fill="#666666" d="M35.6,38.9h0.5v0.6c0.2-0.2,0.3-0.4,0.5-0.5c0.2-0.1,0.4-0.2,0.5-0.2
			c0.1,0,0.3,0,0.5,0.1l-0.3,0.4c-0.1,0-0.2-0.1-0.3-0.1c-0.2,0-0.3,0.1-0.5,0.2c-0.2,0.1-0.3,0.4-0.4,0.7c-0.1,0.2-0.1,0.7-0.1,1.4
			v1.4h-0.5L35.6,38.9L35.6,38.9L35.6,38.9z"/>
		<path id="ggbLogoLetter6_1_" fill="#666666" d="M30.7,42.9v-5.5h0.5v2.2c0.2-0.3,0.5-0.5,0.7-0.6c0.3-0.1,0.6-0.2,0.9-0.2
			c0.6,0,1.1,0.2,1.4,0.6c0.4,0.4,0.6,0.9,0.6,1.5c0,0.6-0.2,1.1-0.6,1.5c-0.4,0.4-0.9,0.6-1.5,0.6c-0.3,0-0.6-0.1-0.9-0.2
			c-0.3-0.1-0.5-0.3-0.7-0.6v0.7L30.7,42.9L30.7,42.9L30.7,42.9z M32.8,42.5c0.3,0,0.5-0.1,0.8-0.2c0.2-0.1,0.4-0.3,0.6-0.6
			c0.1-0.3,0.2-0.5,0.2-0.8c0-0.3-0.1-0.6-0.2-0.8c-0.1-0.3-0.3-0.5-0.6-0.6c-0.2-0.1-0.5-0.2-0.8-0.2c-0.3,0-0.5,0.1-0.8,0.2
			c-0.3,0.1-0.4,0.3-0.6,0.6c-0.1,0.2-0.2,0.5-0.2,0.8c0,0.5,0.2,0.9,0.5,1.2C31.9,42.4,32.3,42.5,32.8,42.5L32.8,42.5z"/>
		<path id="ggbLogoLetter5_1_" fill="#666666" d="M29.1,41.6l0.4,0.2c-0.1,0.3-0.3,0.5-0.5,0.7c-0.2,0.2-0.4,0.3-0.6,0.4
			C28.2,43,28,43,27.7,43c-0.7,0-1.2-0.2-1.5-0.6c-0.4-0.4-0.5-0.9-0.5-1.4c0-0.5,0.2-1,0.5-1.4c0.4-0.5,0.9-0.8,1.6-0.8
			c0.7,0,1.2,0.3,1.6,0.8c0.3,0.4,0.4,0.8,0.4,1.4h-3.6c0,0.5,0.2,0.9,0.4,1.1c0.3,0.3,0.6,0.4,1.1,0.4c0.2,0,0.4,0,0.6-0.1
			c0.2-0.1,0.4-0.2,0.5-0.3C28.8,42,29,41.8,29.1,41.6L29.1,41.6z M29.1,40.5c-0.1-0.3-0.2-0.5-0.3-0.7c-0.1-0.2-0.3-0.3-0.5-0.4
			c-0.2-0.1-0.4-0.2-0.7-0.2c-0.4,0-0.7,0.1-1,0.4c-0.2,0.2-0.4,0.5-0.5,0.8L29.1,40.5L29.1,40.5z"/>
		<path id="ggbLogoLetter4_1_" fill="#666666" d="M24.5,38.4l-0.4,0.4c-0.3-0.3-0.6-0.5-1-0.7c-0.4-0.2-0.7-0.2-1-0.2
			c-0.4,0-0.8,0.1-1.2,0.3c-0.4,0.2-0.7,0.5-0.9,0.9c-0.2,0.3-0.3,0.7-0.3,1.1c0,0.4,0.1,0.8,0.3,1.2c0.2,0.4,0.5,0.7,0.9,0.9
			c0.4,0.2,0.8,0.3,1.3,0.3c0.6,0,1-0.2,1.4-0.5c0.4-0.3,0.6-0.7,0.7-1.2h-1.7v-0.5h2.3c0,0.8-0.3,1.5-0.7,2c-0.5,0.5-1.2,0.7-2,0.7
			c-1,0-1.8-0.3-2.4-1c-0.5-0.5-0.7-1.1-0.7-1.8c0-0.5,0.1-1,0.4-1.4c0.3-0.4,0.6-0.8,1.1-1c0.5-0.2,1-0.4,1.5-0.4
			c0.5,0,0.9,0.1,1.3,0.2C23.7,37.8,24.1,38,24.5,38.4L24.5,38.4z"/>
		<g id="ggbLogoLetter3_1_">
			<g id="ggbLogoCircle_1_">
				<g>
					<path fill="#666666" d="M15.6,39.6c-0.1-0.1-0.2-0.2-0.2-0.4v0l0,0c-0.4,0.2-0.8,0.5-1.1,0.9c0.1,0,0.3,0.2,0.3,0.3
						c0,0,0-0.1,0.1-0.1C14.9,40,15.2,39.8,15.6,39.6C15.5,39.6,15.6,39.6,15.6,39.6z M14.4,41.2L14.4,41.2c-0.1,0-0.1,0-0.2,0
						c-0.1,0-0.2,0-0.2,0c0,0.3,0,0.5,0.2,0.8c0.1,0.2,0.2,0.3,0.3,0.4c0.1-0.1,0.2-0.2,0.3-0.3c-0.1-0.1-0.1-0.2-0.2-0.3
						C14.4,41.7,14.4,41.5,14.4,41.2z M16.6,39.4c0.5,0,0.9,0.2,1.1,0.5c0.1-0.1,0.2-0.2,0.4-0.2c-0.3-0.5-0.9-0.7-1.5-0.8
						c0,0.1,0.1,0.2,0.1,0.3C16.6,39.3,16.6,39.3,16.6,39.4z M15.6,42.6C15.6,42.6,15.6,42.6,15.6,42.6
						C15.6,42.6,15.6,42.7,15.6,42.6c-0.1,0.2-0.1,0.3-0.2,0.4c0.4,0.1,0.9,0,1.4-0.2c-0.1-0.1-0.2-0.2-0.2-0.4
						C16.3,42.6,16,42.7,15.6,42.6z M18.1,40.9c-0.1,0-0.1,0-0.2,0c0,0.3-0.2,0.5-0.4,0.8c0,0-0.1,0.1-0.1,0.1
						c0.1,0,0.2,0.2,0.3,0.3c0-0.1,0.1-0.1,0.2-0.2c0.3-0.4,0.4-0.7,0.4-1.1C18.3,40.9,18.2,40.9,18.1,40.9z"/>
				</g>
			</g>
			<g id="ggbLogoEmblem_1_">
				<g id="ggbLogoDot_9_">
					<g id="ggbLogoDotOuter_5_">
						<g>
							<path fill="#191919" d="M14.2,40.1c-0.3,0-0.6,0.3-0.6,0.6c0,0.3,0.3,0.6,0.6,0.6c0.3,0,0.6-0.3,0.6-0.6
								C14.8,40.3,14.5,40.1,14.2,40.1z M14.2,41.1c-0.2,0-0.4-0.2-0.4-0.4s0.2-0.4,0.4-0.4c0.2,0,0.4,0.2,0.4,0.4
								S14.4,41.1,14.2,41.1z"/>
						</g>
					</g>
					<circle id="ggbLogoDotInner_9_" fill="#9A97C1" cx="14.2" cy="40.7" r="0.4"/>
				</g>
				<g id="ggbLogoDot_8_">
					<g id="ggbLogoDotOuter_4_">
						<g>
							<path fill="#191919" d="M15,42.1c-0.3,0-0.6,0.3-0.6,0.6c0,0.3,0.3,0.6,0.6,0.6c0.3,0,0.6-0.3,0.6-0.6
								C15.6,42.4,15.3,42.1,15,42.1z M15,43.1c-0.2,0-0.4-0.2-0.4-0.4c0-0.2,0.2-0.4,0.4-0.4s0.4,0.2,0.4,0.4
								C15.4,42.9,15.2,43.1,15,43.1z"/>
						</g>
					</g>
					<circle id="ggbLogoDotInner_8_" fill="#9A97C1" cx="15" cy="42.7" r="0.4"/>
				</g>
				<g id="ggbLogoDot_7_">
					<g id="ggbLogoDotOuter_3_">
						<g>
							<path fill="#191919" d="M16,38.6c-0.3,0-0.6,0.3-0.6,0.6c0,0.3,0.3,0.6,0.6,0.6c0.3,0,0.6-0.3,0.6-0.6
								C16.6,38.9,16.4,38.6,16,38.6z M16,39.6c-0.2,0-0.4-0.2-0.4-0.4c0-0.2,0.2-0.4,0.4-0.4c0.2,0,0.4,0.2,0.4,0.4
								C16.4,39.5,16.3,39.6,16,39.6z"/>
						</g>
					</g>
					<circle id="ggbLogoDotInner_7_" fill="#9A97C1" cx="16" cy="39.2" r="0.4"/>
				</g>
				<g id="ggbLogoDot_6_">
					<g id="ggbLogoDotOuter_2_">
						<g>
							<path fill="#191919" d="M18.1,39.7c-0.3,0-0.6,0.3-0.6,0.6c0,0.3,0.3,0.6,0.6,0.6c0.3,0,0.6-0.3,0.6-0.6
								C18.7,40,18.4,39.7,18.1,39.7z M18.1,40.7c-0.2,0-0.4-0.2-0.4-0.4c0-0.2,0.2-0.4,0.4-0.4c0.2,0,0.4,0.2,0.4,0.4
								C18.5,40.6,18.3,40.7,18.1,40.7z"/>
						</g>
					</g>
					<circle id="ggbLogoDotInner_6_" fill="#9A97C1" cx="18.1" cy="40.3" r="0.4"/>
				</g>
				<g id="ggbLogoDot_5_">
					<g id="ggbLogoDotOuter_1_">
						<g>
							<path fill="#191919" d="M17.3,41.8c-0.3,0-0.6,0.3-0.6,0.6c0,0.3,0.3,0.6,0.6,0.6c0.3,0,0.6-0.3,0.6-0.6
								C17.9,42.1,17.6,41.8,17.3,41.8z M17.3,42.8c-0.2,0-0.4-0.2-0.4-0.4c0-0.2,0.2-0.4,0.4-0.4s0.4,0.2,0.4,0.4
								C17.7,42.6,17.5,42.8,17.3,42.8z"/>
						</g>
					</g>
					<circle id="ggbLogoDotInner_5_" fill="#9A97C1" cx="17.3" cy="42.4" r="0.4"/>
				</g>
			</g>
		</g>
		<path id="ggbLogoLetter2_1_" fill="#666666" d="M12.6,41.6l0.4,0.2c-0.1,0.3-0.3,0.5-0.5,0.7c-0.2,0.2-0.4,0.3-0.6,0.4
			c-0.2,0.1-0.5,0.1-0.8,0.1c-0.7,0-1.2-0.2-1.5-0.6C9.2,42,9,41.5,9,41c0-0.5,0.2-1,0.5-1.4c0.4-0.5,0.9-0.8,1.6-0.8
			c0.7,0,1.2,0.3,1.6,0.8c0.3,0.4,0.4,0.8,0.4,1.4H9.6c0,0.5,0.2,0.9,0.4,1.1c0.3,0.3,0.6,0.4,1.1,0.4c0.2,0,0.4,0,0.6-0.1
			c0.2-0.1,0.4-0.2,0.5-0.3C12.3,42.1,12.4,41.9,12.6,41.6L12.6,41.6z M12.6,40.5c-0.1-0.3-0.2-0.5-0.3-0.7
			c-0.1-0.2-0.3-0.3-0.5-0.4c-0.2-0.1-0.4-0.2-0.7-0.2c-0.4,0-0.7,0.1-1,0.4c-0.2,0.2-0.4,0.5-0.5,0.8L12.6,40.5L12.6,40.5z"/>
		<path id="ggbLogoLetter1_1_" fill="#666666" d="M8,38.4l-0.4,0.4c-0.3-0.3-0.6-0.5-1-0.7c-0.4-0.2-0.7-0.2-1-0.2
			c-0.4,0-0.8,0.1-1.2,0.3c-0.4,0.2-0.7,0.5-0.9,0.9c-0.2,0.3-0.3,0.7-0.3,1.1c0,0.4,0.1,0.8,0.3,1.2c0.2,0.4,0.5,0.7,0.9,0.9
			c0.4,0.2,0.8,0.3,1.3,0.3c0.6,0,1-0.2,1.4-0.5c0.4-0.3,0.6-0.7,0.7-1.2H5.9v-0.5h2.3c0,0.8-0.3,1.5-0.7,2c-0.5,0.5-1.2,0.7-2,0.7
			c-1,0-1.8-0.3-2.4-1c-0.5-0.5-0.7-1.1-0.7-1.8c0-0.5,0.1-1,0.4-1.4c0.3-0.4,0.6-0.8,1.1-1c0.5-0.2,1-0.4,1.5-0.4
			c0.5,0,0.9,0.1,1.3,0.2C7.2,37.8,7.6,38.1,8,38.4L8,38.4z"/>
	</g>
</g>
<path id="ggbLogoLetter8_2_" fill="#666666" d="M112.6-31.4v4.4H112v-0.8c-0.2,0.3-0.5,0.5-0.8,0.7c-0.3,0.2-0.6,0.2-1,0.2
	c-0.6,0-1.2-0.2-1.6-0.7c-0.4-0.5-0.7-1-0.7-1.7c0-0.6,0.2-1.2,0.7-1.6c0.5-0.5,1-0.7,1.6-0.7c0.4,0,0.7,0.1,1,0.2
	c0.3,0.2,0.6,0.4,0.8,0.7v-0.8L112.6-31.4L112.6-31.4z M110.3-31c-0.3,0-0.6,0.1-0.9,0.2c-0.3,0.2-0.5,0.4-0.6,0.7
	c-0.2,0.3-0.2,0.6-0.2,0.9c0,0.3,0.1,0.6,0.2,0.9c0.2,0.3,0.4,0.5,0.6,0.7c0.3,0.2,0.6,0.2,0.9,0.2c0.3,0,0.6-0.1,0.9-0.2
	c0.3-0.2,0.5-0.4,0.6-0.6c0.2-0.3,0.2-0.6,0.2-0.9c0-0.5-0.2-0.9-0.5-1.3C111.2-30.8,110.8-31,110.3-31L110.3-31z"/>
<path id="ggbLogoLetter7_2_" fill="#666666" d="M105.4-31.4h0.6v0.6c0.2-0.3,0.4-0.4,0.6-0.6c0.2-0.1,0.4-0.2,0.6-0.2
	c0.2,0,0.3,0.1,0.5,0.2l-0.3,0.5c-0.1-0.1-0.2-0.1-0.3-0.1c-0.2,0-0.4,0.1-0.6,0.2c-0.2,0.2-0.3,0.4-0.4,0.7
	c-0.1,0.3-0.1,0.8-0.1,1.5v1.5h-0.6L105.4-31.4L105.4-31.4L105.4-31.4z"/>
<path id="ggbLogoLetter6_2_" fill="#666666" d="M99.9-27v-6.2h0.6v2.5c0.2-0.3,0.5-0.5,0.8-0.7c0.3-0.2,0.6-0.2,1-0.2
	c0.6,0,1.2,0.2,1.6,0.7c0.4,0.5,0.7,1,0.7,1.7c0,0.6-0.2,1.2-0.7,1.6c-0.5,0.5-1,0.7-1.6,0.7c-0.4,0-0.7-0.1-1-0.2
	c-0.3-0.2-0.6-0.4-0.8-0.7v0.8L99.9-27L99.9-27L99.9-27z M102.2-27.4c0.3,0,0.6-0.1,0.9-0.2c0.3-0.2,0.5-0.4,0.6-0.7
	c0.2-0.3,0.2-0.6,0.2-0.9c0-0.3-0.1-0.6-0.2-0.9c-0.2-0.3-0.4-0.5-0.6-0.7c-0.3-0.2-0.6-0.2-0.9-0.2c-0.3,0-0.6,0.1-0.9,0.2
	c-0.3,0.2-0.5,0.4-0.6,0.6c-0.2,0.3-0.2,0.6-0.2,0.9c0,0.5,0.2,0.9,0.5,1.3C101.3-27.6,101.7-27.4,102.2-27.4L102.2-27.4z"/>
<path id="ggbLogoLetter5_2_" fill="#666666" d="M98.2-28.5l0.5,0.3c-0.2,0.3-0.3,0.6-0.5,0.8c-0.2,0.2-0.4,0.3-0.7,0.4
	c-0.3,0.1-0.6,0.2-0.9,0.2c-0.7,0-1.3-0.2-1.7-0.7c-0.4-0.5-0.6-1-0.6-1.6c0-0.6,0.2-1.1,0.5-1.5c0.4-0.6,1-0.8,1.8-0.8
	c0.8,0,1.4,0.3,1.8,0.9c0.3,0.4,0.5,0.9,0.5,1.5h-4c0,0.5,0.2,0.9,0.5,1.3c0.3,0.3,0.7,0.5,1.2,0.5c0.2,0,0.4,0,0.7-0.1
	c0.2-0.1,0.4-0.2,0.5-0.3C97.9-28,98-28.2,98.2-28.5L98.2-28.5z M98.2-29.7c-0.1-0.3-0.2-0.5-0.3-0.7c-0.2-0.2-0.3-0.3-0.6-0.4
	C97.1-31,96.8-31,96.5-31c-0.4,0-0.8,0.1-1.1,0.4c-0.2,0.2-0.4,0.5-0.5,0.9L98.2-29.7L98.2-29.7z"/>
<path id="ggbLogoLetter4_2_" fill="#666666" d="M93.1-32l-0.5,0.4c-0.3-0.3-0.7-0.6-1.1-0.7c-0.4-0.2-0.8-0.3-1.2-0.3
	c-0.5,0-0.9,0.1-1.4,0.4c-0.4,0.2-0.8,0.5-1,0.9c-0.2,0.4-0.4,0.8-0.4,1.3c0,0.5,0.1,0.9,0.4,1.3c0.2,0.4,0.6,0.7,1,1
	c0.4,0.2,0.9,0.4,1.4,0.4c0.6,0,1.2-0.2,1.6-0.5c0.4-0.4,0.7-0.8,0.8-1.4h-1.9v-0.6h2.6c0,0.9-0.3,1.7-0.8,2.2
	c-0.5,0.5-1.3,0.8-2.2,0.8c-1.1,0-2-0.4-2.6-1.1c-0.5-0.6-0.7-1.3-0.7-2c0-0.6,0.1-1.1,0.4-1.6c0.3-0.5,0.7-0.9,1.2-1.2
	c0.5-0.3,1.1-0.4,1.7-0.4c0.5,0,1,0.1,1.4,0.3C92.2-32.7,92.6-32.4,93.1-32L93.1-32z"/>
<g id="ggbLogoLetter3_2_">
	<g id="ggbLogoCircle_2_">
		<g>
			<path fill="#666666" d="M18.8,8.4c-0.7-0.8-1.1-1.8-1.1-2.8V5.5l0,0c-3.2,1.5-5.9,3.8-7.9,6.7c1,0.3,1.9,1.1,2.5,2
				c0.1-0.2,0.2-0.5,0.5-0.7c1.4-1.9,3.3-3.6,5.7-4.9C18.4,8.5,18.6,8.5,18.8,8.4z M9.9,20.5L9.9,20.5c-0.5,0.1-1,0.2-1.6,0.2
				c-0.6,0-1.1-0.1-1.6-0.3c-0.1,2,0.1,4,1.1,6.1c0.6,1.2,1.4,2.3,2.3,3.2c0.5-1,1.1-1.8,2.2-2.3c-0.6-0.7-1-1.4-1.5-2.1
				C10.2,23.7,9.8,22.1,9.9,20.5z M26.4,6.6c3.6,0.2,6.5,1.6,8.2,3.8c0.8-0.7,1.7-1.1,2.8-1.1C35.1,5.9,30.9,3.8,26,3.7
				c0.2,0.6,0.5,1.2,0.5,1.9C26.5,5.9,26.5,6.3,26.4,6.6z M19.1,30.6c-0.2,0-0.3-0.1-0.6-0.1c0,0.2,0.1,0.5,0.1,0.8
				c0,0.8-0.2,1.6-0.7,2.3c3.2,0.5,6.8,0,10.2-1.5c-0.7-0.7-1.1-1.7-1.2-2.7C24.3,30.5,21.5,31,19.1,30.6z M37.5,18.1
				c-0.5,0-0.8-0.1-1.1-0.2c-0.2,1.9-1.1,4.1-2.7,6.2c-0.2,0.2-0.5,0.6-0.7,0.8c1,0.3,1.8,1.1,2.3,2c0.3-0.5,0.8-0.9,1.1-1.4
				c1.9-2.7,2.8-5.5,3.1-7.9C38.8,17.9,38.2,18.1,37.5,18.1z"/>
		</g>
	</g>
	<g id="ggbLogoEmblem_2_">
		<g id="ggbLogoDot_10_">
			<g id="ggbLogoDotOuter_10_">
				<g>
					<path fill="#191919" d="M8.4,11.9c-2.5,0-4.4,1.9-4.4,4.4c0,2.5,1.9,4.4,4.4,4.4c2.5,0,4.4-1.9,4.4-4.4
						C12.8,13.8,10.9,11.9,8.4,11.9z M8.4,19.3c-1.7,0-3.1-1.4-3.1-3c0-1.7,1.4-3,3.1-3c1.7,0,3.1,1.4,3.1,3
						C11.4,18,10.1,19.3,8.4,19.3z"/>
				</g>
			</g>
			<ellipse id="ggbLogoDotInner_10_" fill="#9A97C1" cx="8.4" cy="16.3" rx="3.1" ry="3"/>
		</g>
		<g id="ggbLogoDot_4_">
			<g id="ggbLogoDotOuter_9_">
				<g>
					<path fill="#191919" d="M14.3,26.9c-2.5,0-4.4,1.9-4.4,4.4c0,2.5,1.9,4.4,4.4,4.4s4.4-1.9,4.4-4.4
						C18.7,28.8,16.7,26.9,14.3,26.9z M14.3,34.4c-1.7,0-3.1-1.4-3.1-3c0-1.7,1.4-3,3.1-3s3.1,1.4,3.1,3C17.3,33,16,34.4,14.3,34.4z
						"/>
				</g>
			</g>
			<ellipse id="ggbLogoDotInner_4_" fill="#9A97C1" cx="14.3" cy="31.3" rx="3.1" ry="3"/>
		</g>
		<g id="ggbLogoDot_3_">
			<g id="ggbLogoDotOuter_8_">
				<g>
					<path fill="#191919" d="M22.1,1.2c-2.5,0-4.4,1.9-4.4,4.4c0,2.5,1.9,4.4,4.4,4.4c2.5,0,4.4-1.9,4.4-4.4
						C26.5,3.1,24.6,1.2,22.1,1.2z M22.1,8.6c-1.7,0-3.1-1.4-3.1-3c0-1.7,1.4-3,3.1-3c1.7,0,3.1,1.4,3.1,3
						C25.1,7.3,23.8,8.6,22.1,8.6z"/>
				</g>
			</g>
			<ellipse id="ggbLogoDotInner_3_" fill="#9A97C1" cx="22.1" cy="5.6" rx="3.1" ry="3"/>
		</g>
		<g id="ggbLogoDot_2_">
			<g id="ggbLogoDotOuter_7_">
				<g>
					<path fill="#191919" d="M37.5,9.3c-2.5,0-4.4,1.9-4.4,4.4c0,2.5,1.9,4.4,4.4,4.4c2.5,0,4.4-1.9,4.4-4.4
						C41.9,11.2,40,9.3,37.5,9.3z M37.5,16.8c-1.7,0-3.1-1.4-3.1-3c0-1.7,1.4-3,3.1-3c1.7,0,3.1,1.4,3.1,3
						C40.5,15.4,39.2,16.8,37.5,16.8z"/>
				</g>
			</g>
			<ellipse id="ggbLogoDotInner_2_" fill="#9A97C1" cx="37.5" cy="13.7" rx="3.1" ry="3"/>
		</g>
		<g id="ggbLogoDot_1_">
			<g id="ggbLogoDotOuter_6_">
				<g>
					<path fill="#191919" d="M31.4,24.5c-2.5,0-4.4,1.9-4.4,4.4c0,2.5,1.9,4.4,4.4,4.4c2.5,0,4.4-1.9,4.4-4.4
						C35.8,26.5,33.9,24.5,31.4,24.5z M31.4,32c-1.7,0-3.1-1.4-3.1-3c0-1.7,1.4-3,3.1-3s3.1,1.4,3.1,3C34.4,30.6,33.1,32,31.4,32z"
						/>
				</g>
			</g>
			<ellipse id="ggbLogoDotInner_1_" fill="#9A97C1" cx="31.4" cy="28.9" rx="3.1" ry="3"/>
		</g>
	</g>
</g>
<path id="ggbLogoLetter2_2_" fill="#666666" d="M79.8-28.4l0.5,0.3c-0.2,0.3-0.3,0.6-0.5,0.8c-0.2,0.2-0.4,0.3-0.7,0.4
	c-0.3,0.1-0.6,0.2-0.9,0.2c-0.7,0-1.3-0.2-1.7-0.7c-0.4-0.5-0.6-1-0.6-1.6c0-0.6,0.2-1.1,0.5-1.5c0.4-0.6,1-0.8,1.8-0.8
	c0.8,0,1.4,0.3,1.8,0.9c0.3,0.4,0.5,0.9,0.5,1.5h-4c0,0.5,0.2,0.9,0.5,1.3c0.3,0.3,0.7,0.5,1.2,0.5c0.2,0,0.4,0,0.7-0.1
	c0.2-0.1,0.4-0.2,0.5-0.3C79.5-27.9,79.7-28.1,79.8-28.4L79.8-28.4z M79.8-29.6c-0.1-0.3-0.2-0.5-0.3-0.7c-0.2-0.2-0.3-0.3-0.6-0.4
	c-0.2-0.1-0.5-0.2-0.8-0.2c-0.4,0-0.8,0.1-1.1,0.4c-0.2,0.2-0.4,0.5-0.5,0.9L79.8-29.6L79.8-29.6z"/>
<path id="ggbLogoLetter1_2_" fill="#666666" d="M74.7-32l-0.5,0.4c-0.3-0.3-0.7-0.6-1.1-0.7c-0.4-0.2-0.8-0.3-1.2-0.3
	c-0.5,0-0.9,0.1-1.4,0.4c-0.4,0.2-0.8,0.5-1,0.9c-0.2,0.4-0.4,0.8-0.4,1.3c0,0.5,0.1,0.9,0.4,1.3c0.2,0.4,0.6,0.7,1,1
	c0.4,0.2,0.9,0.4,1.4,0.4c0.6,0,1.2-0.2,1.6-0.5c0.4-0.4,0.7-0.8,0.8-1.4h-1.9v-0.6H75c0,0.9-0.3,1.7-0.8,2.2
	c-0.5,0.5-1.3,0.8-2.2,0.8c-1.1,0-2-0.4-2.6-1.1c-0.5-0.6-0.7-1.3-0.7-2c0-0.6,0.1-1.1,0.4-1.6c0.3-0.5,0.7-0.9,1.2-1.2
	c0.5-0.3,1.1-0.4,1.7-0.4c0.5,0,1,0.1,1.4,0.3C73.8-32.7,74.2-32.4,74.7-32L74.7-32z"/>
</svg>
